<svg id="Layer_1" data-name="Layer 1" xmlns="http://www.w3.org/2000/svg" viewBox="0 0 431 1001"><polygon points="285 139 18 106 43 971 199 983 285 139" style="opacity:0.2"/><polygon points="412 67 285.06 138.72 200 982 275 956 412 67" style="opacity:0.3"/><polygon points="412.5 67.5 179 27 18 106 285.5 139.5 412.5 67.5" style="opacity:0.1"/><polygon points="103 171.86 44.81 164.66 52.75 240.8 86.75 243.41 103 171.86" style="opacity:0.2"/><polygon points="173.4 180.98 115.21 173.79 123.16 249.92 157.16 252.54 173.4 180.98" style="opacity:0.2"/><polygon points="244.4 190.98 186.21 183.79 194.16 259.92 228.16 262.54 244.4 190.98" style="opacity:0.2"/><polygon points="99.67 275.05 44.51 268.23 52.04 340.39 84.27 342.87 99.67 275.05" style="opacity:0.2"/><polygon points="166.4 283.7 111.24 276.88 118.77 349.04 151 351.52 166.4 283.7" style="opacity:0.2"/><polygon points="233.7 293.17 178.54 286.36 186.07 358.52 218.3 361 233.7 293.17" style="opacity:0.2"/><polygon points="99.34 370.39 47.62 364 54.69 431.65 84.9 433.98 99.34 370.39" style="opacity:0.2"/><polygon points="161.9 378.5 110.19 372.11 117.25 439.76 147.47 442.09 161.9 378.5" style="opacity:0.2"/><polygon points="225 387.39 173.28 380.99 180.35 448.65 210.56 450.98 225 387.39" style="opacity:0.2"/><polygon points="96.38 462.09 47.36 456.03 54.05 520.16 82.69 522.37 96.38 462.09" style="opacity:0.2"/><polygon points="155.68 469.78 106.66 463.72 113.36 527.85 142 530.05 155.68 469.78" style="opacity:0.2"/><polygon points="215.49 478.2 166.47 472.14 173.16 536.27 201.8 538.48 215.49 478.2" style="opacity:0.2"/><polygon points="98.13 547.67 55.22 542.36 61.08 598.5 86.15 600.43 98.13 547.67" style="opacity:0.2"/><polygon points="150.04 554.39 107.13 549.09 112.99 605.23 138.06 607.16 150.04 554.39" style="opacity:0.2"/><polygon points="202.4 561.77 159.49 556.47 165.35 612.6 190.42 614.53 202.4 561.77" style="opacity:0.2"/><polygon points="95.67 623.75 55 618.73 60.55 671.94 84.32 673.77 95.67 623.75" style="opacity:0.2"/><polygon points="144.88 630.13 104.21 625.11 109.76 678.32 133.53 680.14 144.88 630.13" style="opacity:0.2"/><polygon points="194.5 637.12 153.83 632.1 159.39 685.31 183.15 687.13 194.5 637.12" style="opacity:0.2"/><polygon points="95.43 694.06 57.3 689.35 62.51 739.23 84.78 740.95 95.43 694.06" style="opacity:0.2"/><polygon points="141.56 700.04 103.43 695.33 108.64 745.21 130.92 746.93 141.56 700.04" style="opacity:0.2"/><polygon points="188.09 706.59 149.96 701.88 155.16 751.77 177.44 753.48 188.09 706.59" style="opacity:0.2"/><polygon points="93.25 761.67 57.1 757.21 62.04 804.5 83.16 806.12 93.25 761.67" style="opacity:0.2"/><polygon points="136.98 767.34 100.83 762.88 105.77 810.16 126.89 811.79 136.98 767.34" style="opacity:0.2"/><polygon points="181.08 773.55 144.93 769.09 149.87 816.38 170.99 818 181.08 773.55" style="opacity:0.2"/><polygon points="94.02 828.39 59.55 824.13 64.26 869.22 84.4 870.77 94.02 828.39" style="opacity:0.2"/><polygon points="135.72 833.79 101.25 829.53 105.96 874.63 126.1 876.18 135.72 833.79" style="opacity:0.2"/><polygon points="177.78 839.72 143.31 835.46 148.01 880.55 168.15 882.1 177.78 839.72" style="opacity:0.2"/><polygon points="93.82 887.97 61.5 883.97 65.91 926.25 84.79 927.7 93.82 887.97" style="opacity:0.2"/><polygon points="132.91 893.03 100.6 889.04 105.01 931.32 123.89 932.77 132.91 893.03" style="opacity:0.2"/><polygon points="172.34 898.59 140.02 894.59 144.44 936.87 163.32 938.32 172.34 898.59" style="opacity:0.2"/></svg>